<?xml version="1.0" encoding="UTF-8" standalone="no"?>
<svg
   xml:space="preserve"
   shape-rendering="geometricPrecision"
   text-rendering="geometricPrecision"
   image-rendering="optimizeQuality"
   fill-rule="evenodd"
   clip-rule="evenodd"
   viewBox="0 0 36 36"
   version="1.1"
   id="svg2"
   sodipodi:docname="dai.svg"
   width="36"
   height="36"
   inkscape:version="1.3.2 (091e20e, 2023-11-25, custom)"
   xmlns:inkscape="http://www.inkscape.org/namespaces/inkscape"
   xmlns:sodipodi="http://sodipodi.sourceforge.net/DTD/sodipodi-0.dtd"
   xmlns="http://www.w3.org/2000/svg"
   xmlns:svg="http://www.w3.org/2000/svg"><defs
     id="defs2" /><sodipodi:namedview
     id="namedview2"
     pagecolor="#ffffff"
     bordercolor="#000000"
     borderopacity="0.25"
     inkscape:showpageshadow="2"
     inkscape:pageopacity="0.0"
     inkscape:pagecheckerboard="0"
     inkscape:deskcolor="#d1d1d1"
     inkscape:zoom="4.944847"
     inkscape:cx="5.2579989"
     inkscape:cy="46.209721"
     inkscape:window-width="1920"
     inkscape:window-height="991"
     inkscape:window-x="-9"
     inkscape:window-y="-9"
     inkscape:window-maximized="1"
     inkscape:current-layer="svg2" /><g
     fill-rule="nonzero"
     id="g2"
     transform="scale(0.08100081)"><path
       fill="#f5ac37"
       d="m 222.22,0 c 122.74,0 222.22,99.5 222.22,222.22 0,122.74 -99.48,222.22 -222.22,222.22 C 99.5,444.44 0,344.95 0,222.22 0,99.5 99.5,0 222.22,0 Z"
       id="path1" /><path
       fill="#fefefd"
       d="m 230.41,237.91 h 84.44 c 1.8,0 2.65,0 2.78,-2.36 0.69,-8.59 0.69,-17.23 0,-25.83 0,-1.67 -0.83,-2.36 -2.64,-2.36 H 146.94 c -2.08,0 -2.64,0.69 -2.64,2.64 v 24.72 c 0,3.19 0,3.19 3.33,3.19 z m 77.79,-59.44 c 0.24,-0.63 0.24,-1.32 0,-1.94 -1.41,-3.07 -3.08,-6 -5.02,-8.75 -2.92,-4.7 -6.36,-9.03 -10.28,-12.92 a 34.076,34.076 0 0 0 -6.39,-6.25 99.833,99.833 0 0 0 -41.67,-21.11 c -7.75,-1.74 -15.67,-2.57 -23.61,-2.5 h -74.58 c -2.08,0 -2.36,0.83 -2.36,2.64 v 49.3 c 0,2.08 0,2.64 2.64,2.64 H 307.2 c 0,0 1.39,-0.28 1.67,-1.11 h -0.68 z m 0,88.33 c -2.36,-0.26 -4.74,-0.26 -7.1,0 H 147.08 c -2.08,0 -2.78,0 -2.78,2.78 v 48.2 c 0,2.22 0,2.78 2.78,2.78 h 71.11 c 3.4,0.26 6.8,0.02 10.13,-0.69 10.32,-0.74 20.47,-2.98 30.15,-6.67 3.52,-1.22 6.92,-2.81 10.13,-4.72 h 0.97 a 90.23,90.23 0 0 0 38.75,-39.01 c 0,0 0.97,-2.1 -0.12,-2.65 z m -191.81,78.75 v -76.8 c 0,-1.81 0,-2.08 -2.22,-2.08 H 84.03 c -1.67,0 -2.36,0 -2.36,-2.22 v -26.39 h 32.22 c 1.8,0 2.5,0 2.5,-2.36 v -26.11 c 0,-1.67 0,-2.08 -2.22,-2.08 H 84.03 c -1.67,0 -2.36,0 -2.36,-2.22 v -24.44 c 0,-1.53 0,-1.94 2.22,-1.94 h 29.86 c 2.08,0 2.64,0 2.64,-2.64 v -74.86 c 0,-2.22 0,-2.78 2.78,-2.78 h 104.16 c 7.56,0.3 15.07,1.13 22.5,2.5 15.31,2.83 30.02,8.3 43.47,16.11 8.92,5.25 17.13,11.59 24.44,18.89 5.5,5.71 10.46,11.89 14.86,18.47 4.37,6.67 8,13.8 10.85,21.25 a 3.617,3.617 0 0 0 4.15,2.92 h 24.86 c 3.19,0 3.19,0 3.33,3.06 v 22.78 c 0,2.22 -0.83,2.78 -3.06,2.78 h -19.17 c -1.94,0 -2.5,0 -2.36,2.5 0.76,8.46 0.76,16.95 0,25.41 0,2.36 0,2.64 2.65,2.64 h 21.93 c 0.97,1.25 0,2.5 0,3.76 0.14,1.61 0.14,3.24 0,4.85 v 16.81 c 0,2.36 -0.69,3.06 -2.78,3.06 h -26.25 c -1.83,-0.35 -3.61,0.82 -4.03,2.64 a 111.06,111.06 0 0 1 -29.17,42.5 c -4.72,4.25 -9.68,8.25 -14.86,11.94 -5.56,3.2 -10.97,6.53 -16.67,9.17 -10.49,4.72 -21.49,8.2 -32.78,10.41 a 170.893,170.893 0 0 1 -32.5,2.64 h -96.39 v -0.14 z"
       id="path2" /></g></svg>
