<?xml version="1.0" encoding="UTF-8" standalone="no"?>
<svg
   width="36"
   height="36"
   fill="none"
   version="1.1"
   id="svg4"
   sodipodi:docname="usdcbsc.svg"
   inkscape:version="1.3.2 (091e20e, 2023-11-25, custom)"
   xmlns:inkscape="http://www.inkscape.org/namespaces/inkscape"
   xmlns:sodipodi="http://sodipodi.sourceforge.net/DTD/sodipodi-0.dtd"
   xmlns="http://www.w3.org/2000/svg"
   xmlns:svg="http://www.w3.org/2000/svg">
  <defs
     id="defs4" />
  <sodipodi:namedview
     id="namedview4"
     pagecolor="#ffffff"
     bordercolor="#000000"
     borderopacity="0.25"
     inkscape:showpageshadow="2"
     inkscape:pageopacity="0.0"
     inkscape:pagecheckerboard="0"
     inkscape:deskcolor="#d1d1d1"
     showguides="true"
     inkscape:zoom="6.8677747"
     inkscape:cx="1.1648606"
     inkscape:cy="33.416938"
     inkscape:window-width="1920"
     inkscape:window-height="991"
     inkscape:window-x="-9"
     inkscape:window-y="-9"
     inkscape:window-maximized="1"
     inkscape:current-layer="svg4" />
  <g
     id="g4"
     transform="scale(1.8)">
    <path
       fill="#2775ca"
       d="M 10,20 C 15.542,20 20,15.542 20,10 20,4.458 15.542,0 10,0 4.458,0 0,4.458 0,10 0,15.542 4.458,20 10,20 Z"
       id="path1" />
    <path
       fill="#ffffff"
       d="m 12.75,11.583 c 0,-1.458 -0.875,-1.958 -2.625,-2.166 -1.25,-0.167 -1.5,-0.5 -1.5,-1.084 0,-0.583 0.417,-0.958 1.25,-0.958 0.75,0 1.167,0.25 1.375,0.875 a 0.313,0.313 0 0 0 0.292,0.208 h 0.666 A 0.285,0.285 0 0 0 12.5,8.167 V 8.125 A 2.082,2.082 0 0 0 10.625,6.417 v -1 C 10.625,5.25 10.5,5.125 10.292,5.083 H 9.667 C 9.5,5.083 9.375,5.208 9.333,5.417 v 0.958 c -1.25,0.167 -2.041,1 -2.041,2.042 0,1.375 0.833,1.916 2.583,2.125 1.167,0.208 1.542,0.458 1.542,1.125 0,0.666 -0.584,1.125 -1.375,1.125 -1.084,0 -1.459,-0.459 -1.584,-1.084 -0.041,-0.166 -0.166,-0.25 -0.291,-0.25 H 7.458 A 0.285,0.285 0 0 0 7.167,11.75 v 0.042 c 0.166,1.041 0.833,1.791 2.208,2 v 1 c 0,0.166 0.125,0.291 0.333,0.333 h 0.625 c 0.167,0 0.292,-0.125 0.334,-0.333 v -1 c 1.25,-0.209 2.083,-1.084 2.083,-2.209 z"
       id="path2" />
    <path
       fill="#ffffff"
       d="m 7.875,15.958 c -3.25,-1.166 -4.917,-4.791 -3.708,-8 0.625,-1.75 2,-3.083 3.708,-3.708 0.167,-0.083 0.25,-0.208 0.25,-0.417 V 3.25 c 0,-0.167 -0.083,-0.292 -0.25,-0.333 -0.042,0 -0.125,0 -0.167,0.041 -3.958,1.25 -6.125,5.459 -4.875,9.417 a 7.496,7.496 0 0 0 4.875,4.875 c 0.167,0.083 0.334,0 0.375,-0.167 C 8.125,17.042 8.125,17 8.125,16.917 V 16.333 C 8.125,16.208 8,16.042 7.875,15.958 Z m 4.417,-13 c -0.167,-0.083 -0.334,0 -0.375,0.167 -0.042,0.042 -0.042,0.083 -0.042,0.167 v 0.583 c 0,0.167 0.125,0.333 0.25,0.417 3.25,1.166 4.917,4.791 3.708,8 A 6.164,6.164 0 0 1 12.125,16 c -0.167,0.083 -0.25,0.208 -0.25,0.417 V 17 c 0,0.167 0.083,0.292 0.25,0.333 0.042,0 0.125,0 0.167,-0.041 3.958,-1.25 6.125,-5.459 4.875,-9.417 A 7.557,7.557 0 0 0 12.292,2.958 Z"
       id="path3" />
    <circle
       cx="15"
       cy="15"
       r="5"
       fill="#131419"
       id="circle3" />
    <path
       fill="#f0b90b"
       fill-rule="evenodd"
       d="m 13.41,14.348 1.59,-1.59 1.59,1.59 0.925,-0.924 L 15,10.909 12.485,13.424 Z m -1.577,-0.27 -0.924,0.924 0.924,0.923 0.923,-0.923 z M 15,17.244 13.41,15.654 12.485,16.579 15,19.093 17.515,16.579 16.59,15.654 Z m 3.168,-3.166 -0.924,0.924 0.924,0.923 0.923,-0.923 -0.924,-0.924 z M 15,14.064 l 0.937,0.937 -0.938,0.938 -0.937,-0.938 0.162,-0.168 0.084,-0.077 z"
       clip-rule="evenodd"
       id="path4" />
  </g>
</svg>
