<?xml version="1.0" encoding="UTF-8" standalone="no"?>
<svg
   width="36"
   height="36"
   fill="none"
   version="1.1"
   id="svg1"
   sodipodi:docname="usdtbsc.svg"
   inkscape:version="1.3.2 (091e20e, 2023-11-25, custom)"
   xmlns:inkscape="http://www.inkscape.org/namespaces/inkscape"
   xmlns:sodipodi="http://sodipodi.sourceforge.net/DTD/sodipodi-0.dtd"
   xmlns="http://www.w3.org/2000/svg"
   xmlns:svg="http://www.w3.org/2000/svg">
  <defs
     id="defs1" />
  <sodipodi:namedview
     id="namedview1"
     pagecolor="#ffffff"
     bordercolor="#000000"
     borderopacity="0.25"
     inkscape:showpageshadow="2"
     inkscape:pageopacity="0.0"
     inkscape:pagecheckerboard="0"
     inkscape:deskcolor="#d1d1d1"
     inkscape:zoom="12.140625"
     inkscape:cx="18.779923"
     inkscape:cy="16.020592"
     inkscape:window-width="1920"
     inkscape:window-height="991"
     inkscape:window-x="-9"
     inkscape:window-y="-9"
     inkscape:window-maximized="1"
     inkscape:current-layer="svg1" />
  <g
     id="g1"
     transform="scale(0.140625)">
    <circle
       cx="128"
       cy="128"
       r="128"
       fill="#50af95"
       id="circle1" />
    <path
       fill-rule="evenodd"
       clip-rule="evenodd"
       d="m 143.331,136.414 c -0.873,0.066 -5.382,0.335 -15.44,0.335 -8,0 -13.68,-0.24 -15.673,-0.335 -30.916,-1.36 -53.993,-6.742 -53.993,-13.185 0,-6.444 23.077,-11.818 53.993,-13.2 v 21.025 c 2.022,0.146 7.811,0.487 15.811,0.487 9.6,0 14.407,-0.4 15.273,-0.48 v -21.018 c 30.851,1.375 53.876,6.757 53.876,13.186 0,6.429 -23.018,11.811 -53.876,13.178 z m 0,-28.545 V 89.054 h 43.055 V 60.364 H 69.164 v 28.69 h 43.047 v 18.807 c -34.99,1.608 -61.302,8.539 -61.302,16.844 0,8.306 26.313,15.229 61.302,16.844 v 60.291 h 31.113 v -60.313 c 34.909,-1.607 61.178,-8.531 61.178,-16.829 0,-8.298 -26.247,-15.222 -61.178,-16.837 z"
       fill="#ffffff"
       id="path1" />
  </g>
</svg>
