<?xml version="1.0" encoding="UTF-8" standalone="no"?>
<svg
   width="36"
   height="36"
   fill="none"
   version="1.1"
   id="svg2"
   sodipodi:docname="usdterc20.svg"
   inkscape:version="1.3.2 (091e20e, 2023-11-25, custom)"
   xmlns:inkscape="http://www.inkscape.org/namespaces/inkscape"
   xmlns:sodipodi="http://sodipodi.sourceforge.net/DTD/sodipodi-0.dtd"
   xmlns="http://www.w3.org/2000/svg"
   xmlns:svg="http://www.w3.org/2000/svg">
  <defs
     id="defs2" />
  <sodipodi:namedview
     id="namedview2"
     pagecolor="#ffffff"
     bordercolor="#000000"
     borderopacity="0.25"
     inkscape:showpageshadow="2"
     inkscape:pageopacity="0.0"
     inkscape:pagecheckerboard="0"
     inkscape:deskcolor="#d1d1d1"
     inkscape:zoom="9.7125001"
     inkscape:cx="-1.029601"
     inkscape:cy="15.083655"
     inkscape:window-width="1920"
     inkscape:window-height="991"
     inkscape:window-x="-9"
     inkscape:window-y="-9"
     inkscape:window-maximized="1"
     inkscape:current-layer="svg2" />
  <g
     id="g2"
     transform="matrix(1.800016,0,0,1.800016,6.2123589e-5,-1.0407936)">
    <path
       fill-rule="evenodd"
       clip-rule="evenodd"
       d="M 3.662,1.386 0.015,9.046 A 0.149,0.149 0 0 0 0.047,9.22 l 9.849,9.437 a 0.15,0.15 0 0 0 0.208,0 L 19.953,9.22 A 0.149,0.149 0 0 0 19.985,9.047 L 16.338,1.387 A 0.147,0.147 0 0 0 16.204,1.301 H 3.798 A 0.147,0.147 0 0 0 3.662,1.386 Z"
       fill="#50af95"
       id="path1" />
    <path
       fill-rule="evenodd"
       clip-rule="evenodd"
       d="M 11.265,9.833 C 11.195,9.838 10.829,9.86 10.015,9.86 9.366,9.86 8.906,9.84 8.745,9.833 6.24,9.723 4.37,9.287 4.37,8.765 4.37,8.243 6.24,7.807 8.745,7.695 V 9.4 c 0.163,0.012 0.632,0.04 1.28,0.04 0.778,0 1.168,-0.033 1.238,-0.04 V 7.696 c 2.5,0.112 4.365,0.548 4.365,1.069 0,0.52 -1.865,0.957 -4.365,1.067 z m 0,-2.313 V 5.996 h 3.489 V 3.671 H 5.256 V 5.996 H 8.744 V 7.52 C 5.909,7.65 3.777,8.211 3.777,8.884 c 0,0.673 2.132,1.234 4.967,1.365 v 4.885 h 2.52 v -4.887 c 2.829,-0.13 4.957,-0.691 4.957,-1.363 0,-0.673 -2.126,-1.234 -4.956,-1.364 z"
       fill="#ffffff"
       id="path2" />
  </g>
</svg>
