<?xml version="1.0" encoding="UTF-8" standalone="no"?>
<svg
   width="36"
   height="36"
   fill="none"
   version="1.1"
   id="svg10"
   sodipodi:docname="usdtsol.svg"
   inkscape:version="1.3.2 (091e20e, 2023-11-25, custom)"
   xmlns:inkscape="http://www.inkscape.org/namespaces/inkscape"
   xmlns:sodipodi="http://sodipodi.sourceforge.net/DTD/sodipodi-0.dtd"
   xmlns="http://www.w3.org/2000/svg"
   xmlns:svg="http://www.w3.org/2000/svg">
  <sodipodi:namedview
     id="namedview10"
     pagecolor="#ffffff"
     bordercolor="#000000"
     borderopacity="0.25"
     inkscape:showpageshadow="2"
     inkscape:pageopacity="0.0"
     inkscape:pagecheckerboard="0"
     inkscape:deskcolor="#d1d1d1"
     inkscape:zoom="9.7124999"
     inkscape:cx="46.846847"
     inkscape:cy="17.554698"
     inkscape:window-width="1920"
     inkscape:window-height="991"
     inkscape:window-x="-9"
     inkscape:window-y="-9"
     inkscape:window-maximized="1"
     inkscape:current-layer="svg10" />
  <g
     id="g10"
     transform="matrix(1.7999126,0,0,1.7999126,4.5919943e-4,-1.5998213)">
    <path
       fill="#009393"
       fill-rule="evenodd"
       d="m 4.356,2 h 11.52 c 0.275,0 0.528,0.147 0.665,0.386 l 3.357,5.84 a 0.77,0.77 0 0 1 -0.126,0.931 l -9.238,9.14 a 0.767,0.767 0 0 1 -1.08,0 L 0.228,9.169 A 0.77,0.77 0 0 1 0.113,8.219 L 3.701,2.367 A 0.768,0.768 0 0 1 4.356,2 Z m 10.032,2.608 v 1.638 h -3.281 v 1.137 c 2.304,0.121 4.034,0.62 4.046,1.217 v 1.247 c -0.013,0.597 -1.742,1.096 -4.046,1.217 v 2.789 H 8.927 V 11.064 C 6.623,10.943 4.894,10.444 4.881,9.847 V 8.6 C 4.894,8.003 6.623,7.504 8.928,7.383 V 6.246 H 5.646 V 4.608 Z m -4.37,5.6 c 2.459,0 4.514,-0.421 5.018,-0.984 -0.427,-0.478 -1.97,-0.854 -3.93,-0.957 v 1.19 a 20.745,20.745 0 0 1 -2.178,0 v -1.19 c -1.96,0.103 -3.503,0.479 -3.93,0.957 0.504,0.563 2.56,0.984 5.02,0.984 z"
       clip-rule="evenodd"
       id="path1" />
    <path
       fill="#ffffff"
       fill-rule="evenodd"
       d="m 14.388,4.608 v 1.638 h -3.281 v 1.137 c 2.304,0.121 4.034,0.62 4.046,1.217 v 1.247 c -0.013,0.597 -1.742,1.096 -4.046,1.217 v 2.789 H 8.927 V 11.064 C 6.623,10.943 4.894,10.444 4.881,9.847 V 8.6 C 4.894,8.003 6.623,7.504 8.928,7.383 V 6.246 H 5.646 V 4.608 Z m 0.648,4.616 c -0.503,0.563 -2.56,0.984 -5.019,0.984 -2.46,0 -4.515,-0.421 -5.018,-0.984 C 5.425,8.746 6.969,8.37 8.928,8.267 v 1.19 a 20.759,20.759 0 0 0 2.179,0 v -1.19 c 1.959,0.103 3.502,0.479 3.929,0.957 z"
       clip-rule="evenodd"
       id="path2" />
    <circle
       cx="15"
       cy="15"
       r="5"
       fill="#000000"
       id="circle2" />
    <path
       fill="url(#a)"
       d="M 12.975,12.073 A 0.177,0.177 0 0 1 13.114,12 h 4.788 c 0.087,0 0.13,0.135 0.07,0.214 l -0.947,1.213 A 0.177,0.177 0 0 1 16.887,13.5 h -4.789 c -0.087,0 -0.13,-0.135 -0.07,-0.214 z"
       id="path3"
       style="fill:url(#a)" />
    <path
       fill="url(#b)"
       d="M 12.975,16.573 A 0.177,0.177 0 0 1 13.114,16.5 h 4.788 c 0.087,0 0.13,0.135 0.07,0.214 l -0.947,1.213 A 0.177,0.177 0 0 1 16.887,18 h -4.789 c -0.087,0 -0.13,-0.135 -0.07,-0.214 z"
       id="path4"
       style="fill:url(#b)" />
    <path
       fill="url(#c)"
       d="m 16.887,14.25 c 0.051,0 0.101,0.026 0.138,0.073 l 0.946,1.213 c 0.062,0.079 0.018,0.214 -0.07,0.214 h -4.787 a 0.177,0.177 0 0 1 -0.139,-0.073 l -0.946,-1.213 c -0.062,-0.079 -0.018,-0.214 0.07,-0.214 z"
       id="path5"
       style="fill:url(#c)" />
  </g>
  <defs
     id="defs10">
    <linearGradient
       id="a"
       x1="16.056"
       x2="11.268"
       y1="10.346"
       y2="17.499001"
       gradientUnits="userSpaceOnUse">
      <stop
         stop-color="#00FFA3"
         id="stop5" />
      <stop
         offset="1"
         stop-color="#DC1FFF"
         id="stop6" />
    </linearGradient>
    <linearGradient
       id="b"
       x1="16.056"
       x2="11.268"
       y1="10.346"
       y2="17.499001"
       gradientUnits="userSpaceOnUse">
      <stop
         stop-color="#00FFA3"
         id="stop7" />
      <stop
         offset="1"
         stop-color="#DC1FFF"
         id="stop8" />
    </linearGradient>
    <linearGradient
       id="c"
       x1="16.056"
       x2="11.268"
       y1="10.346"
       y2="17.499001"
       gradientUnits="userSpaceOnUse">
      <stop
         stop-color="#00FFA3"
         id="stop9" />
      <stop
         offset="1"
         stop-color="#DC1FFF"
         id="stop10" />
    </linearGradient>
  </defs>
</svg>
